PathFileType	3	(X/Y/Z)	E:\ViconData\BIOM9541 2025\Week 7\Wed1100\Hanif high squat 2-5 Squat 01.trc
DataRate	CameraRate	NumFrames	NumMarkers	Units	OrigDataRate	OrigDataStartFrame	OrigNumFrames
200.0	200.0	11	19	mm	200.0	1003	1337	
Frame#	Time	C7			CLAV			RBAK			LASI			RASI			LPSI			RPSI			LTHI			LKNE			LTIB			LANK			LHEE			LTOE			RTHI			RKNE			RTIB			RANK			RHEE			RTOE			
		X1	Y1	Z1	X2	Y2	Z2	X3	Y3	Z3	X4	Y4	Z4	X5	Y5	Z5	X6	Y6	Z6	X7	Y7	Z7	X8	Y8	Z8	X9	Y9	Z9	X10	Y10	Z10	X11	Y11	Z11	X12	Y12	Z12	X13	Y13	Z13	X14	Y14	Z14	X15	Y15	Z15	X16	Y16	Z16	X17	Y17	Z17	X18	Y18	Z18	X19	Y19	Z19	
1003	5.01	300.50238	1056.3915	-1212.3984	158.96712	974.23834	-1200.7412	321.57004	974.68115	-1361.188	249.96124	614.97443	-1085.7009	235.5526	631.691	-1343.6261	418.1232	675.3382	-1173.9614	415.4143	672.8577	-1248.8	155.04276	455.02841	-916.80725	81.41288	347.13089	-874.97522	205.05444	180.26631	-907.87244	297.68692	67.187576	-965.33746	317.68387	54.800659	-1023.8953	161.03271	38.454632	-929.04962	259.09399	552.05927	-1433.1891	79.198708	334.42651	-1529.3533	123.52461	263.2692	-1527.8212	287.06522	72.146736	-1446.1357	314.91446	54.418674	-1374.7002	161.20023	39.629475	-1476.8188	
1004	5.015	300.75195	1057.1949	-1212.5925	159.11882	975.0484	-1200.8701	321.7702	975.40826	-1361.3535	249.98438	615.78156	-1085.8267	235.5816	632.4017	-1343.677	418.189	676.1191	-1174.2045	418.6451	677.4339	-1252.3315	155.35519	455.42996	-916.86041	81.790169	347.4274	-874.99884	205.2437	180.4319	-907.85596	299.9422	69.907555	-967.72388	317.60071	54.283897	-1023.5416	161.0654	38.396072	-929.05212	259.17847	552.71454	-1433.2365	79.576965	334.5455	-1529.3534	123.81469	263.37714	-1527.8125	287.11243	72.014763	-1446.1656	315.55484	53.552876	-1377.144	161.22975	39.597237	-1476.9038	
1005	5.02	300.94943	1058.1218	-1212.6464	159.29843	976.0741	-1200.9386	321.94821	976.30371	-1361.475	250.04909	616.80389	-1085.9789	235.624	633.2106	-1343.8135	418.2612	677.0676	-1174.5664	415.6916	675.2118	-1249.0398	155.6539	455.97571	-916.87506	82.198769	347.78247	-875.06384	205.4668	180.59323	-907.87335	300.02475	69.85112	-967.74866	317.57321	54.036827	-1023.4044	161.06995	38.342121	-929.01715	259.32739	553.56573	-1433.4023	79.944778	334.75522	-1529.363	124.14206	263.58386	-1527.8262	287.20087	71.908241	-1446.1786	315.02136	54.218063	-1374.9929	161.16212	39.536022	-1476.938	
1006	5.025	301.20966	1059.1665	-1212.8381	159.47209	977.15057	-1200.9709	322.12225	977.26642	-1361.6245	250.09415	617.70502	-1086.0942	235.5836	634.2233	-1343.8441	418.2685	678.0674	-1174.7987	418.6306	679.2006	-1252.4448	156.00836	456.47891	-916.91052	82.647247	348.11075	-875.16589	205.71138	180.75125	-907.87555	298.1842	67.683464	-965.22943	317.69611	54.375404	-1023.6801	161.08382	38.345184	-928.98541	259.17651	554.021	-1433.4719	80.350685	335.11359	-1529.3553	124.47997	263.86511	-1527.8273	287.23807	71.870232	-1446.1895	315.74338	53.229252	-1377.6699	161.13492	39.553425	-1476.9938	
1007	5.03	301.41104	1060.2905	-1212.9288	159.68105	978.30853	-1200.9513	322.32559	978.3172	-1361.7479	250.16451	618.78265	-1086.1793	235.6292	635.2457	-1343.9271	418.2466	679.2842	-1174.793	418.2217	680.1148	-1252.0597	156.3448	456.92642	-916.93274	83.158546	348.5267	-875.18701	205.99538	180.87413	-907.8877	298.17429	67.701508	-965.12421	317.74197	54.421307	-1023.6515	161.10893	38.377995	-928.91559	259.36923	555.18268	-1433.5557	80.734055	335.51117	-1529.2942	124.8035	264.18478	-1527.7544	287.25858	71.954079	-1446.2147	315.02817	54.147659	-1375.0288	161.09831	39.588734	-1477.0143	
1008	5.035	301.64447	1061.5082	-1213.0203	159.86774	979.54889	-1200.9987	322.54779	979.52698	-1361.8618	250.1021	619.94891	-1086.0551	235.6447	636.4505	-1344.0698	418.1862	680.6028	-1174.6494	415.75	678.6198	-1249.3788	156.71756	457.46027	-917.02783	83.680519	348.81946	-875.28424	206.24881	181.03709	-907.85834	298.15918	67.649498	-964.97388	317.80447	54.47134	-1023.6166	161.14709	38.443199	-928.89337	259.42657	556.04346	-1433.6292	81.216087	335.95798	-1529.2625	125.16935	264.53421	-1527.6932	287.31677	71.980957	-1446.238	315.7197	53.195953	-1377.6182	161.08443	39.602715	-1477.0361	
1009	5.04	301.91165	1062.7137	-1213.2346	160.09146	980.90924	-1201.171	322.72552	980.71771	-1361.9839	250.13695	621.2182	-1086.1686	235.6084	637.7084	-1344.1372	418.1103	681.9162	-1174.6405	418.2622	683.2155	-1252.5155	157.0986	458.06375	-917.03687	84.16909	349.12207	-875.38007	206.48636	181.17021	-907.86121	298.27216	67.65506	-964.95447	317.87375	54.451584	-1023.5869	161.17807	38.435417	-928.87286	259.46738	557.08392	-1433.7036	81.735809	336.31552	-1529.2051	125.6694	264.92371	-1527.6787	287.38507	71.934464	-1446.2646	315.01535	54.089859	-1374.9784	161.07973	39.592678	-1477.1005	
1010	5.045	302.16022	1064.1157	-1213.3428	160.27554	982.30304	-1201.3938	322.8728	981.96625	-1362.0262	250.15488	622.73633	-1086.2908	235.6456	638.9567	-1344.1993	418.0832	683.3684	-1174.7931	418.0814	684.2316	-1252.2302	157.45979	458.72882	-917.10468	84.725777	349.64844	-875.44043	206.75294	181.36014	-907.84979	298.3515	67.617836	-964.92694	317.91452	54.350555	-1023.4839	161.23955	38.415504	-928.91211	259.56631	557.96826	-1433.7394	82.314056	336.69998	-1529.1715	126.14532	265.22803	-1527.5853	287.5127	71.853203	-1446.2947	315.7619	53.037674	-1377.7062	161.08516	39.532127	-1477.1569	
1011	5.05	302.40182	1065.613	-1213.4771	160.4798	983.8855	-1201.6238	323.10501	983.45752	-1362.1893	250.15396	624.25018	-1086.2992	235.6854	640.3212	-1344.1492	418.0714	685.0124	-1175.001	415.6884	682.9178	-1249.636	157.93761	459.4744	-917.1911	85.385361	350.14832	-875.59949	207.02298	181.56313	-907.88385	298.44205	67.625916	-964.93073	317.95447	54.291924	-1023.4429	161.27151	38.407669	-928.87158	259.60117	559.13855	-1433.8104	82.916389	337.10663	-1529.0582	126.66121	265.63297	-1527.5332	287.54825	71.822403	-1446.3126	315.0379	53.995884	-1375.0709	161.06377	39.560139	-1477.2773	
1012	5.055	302.66928	1067.2938	-1213.6019	160.6765	985.61353	-1201.7014	323.35788	985.11444	-1362.2963	250.10591	625.89868	-1086.2112	235.6112	641.948	-1344.2758	418.018	686.7521	-1174.9856	415.6316	684.5151	-1249.7283	158.55362	460.65567	-917.14661	85.995064	350.66519	-875.7464	207.35538	181.79333	-907.89685				317.76727	53.682667	-1022.8719	161.25499	38.41671	-928.73438	259.48367	560.03546	-1433.7922	83.50071	337.68103	-1528.9728	127.17952	266.07236	-1527.4448	287.60294	71.82753	-1446.3418	315.83224	52.990051	-1377.8367	160.9854	39.556458	-1477.2686	
1013	5.06	302.90985	1069.1218	-1213.7047	160.90695	987.44415	-1201.7625	323.66006	986.89789	-1362.4753	250.09525	627.63959	-1086.2971	235.4911	643.6938	-1344.3425	417.948	688.5914	-1175.0068	415.4577	686.1717	-1249.7325	158.93645	461.07513	-917.41852	86.642189	351.13843	-875.93744	207.71967	182.00491	-907.96387	300.56174	70.356346	-967.64594	317.6311	53.593624	-1022.7088	161.27765	38.453068	-928.68146	259.64859	561.57562	-1433.936	84.161598	338.30585	-1528.8961	127.7086	266.58441	-1527.3048	287.65744	71.87825	-1446.3715	315.11166	53.941113	-1375.1461	160.97064	39.619934	-1477.329	
